<svg xmlns="http://www.w3.org/2000/svg" xmlns:xlink="http://www.w3.org/1999/xlink" width="72" height="72" viewBox="0 0 72 72">
  <defs>
    <clipPath id="clip-SPRK_default_preset_name_custom_1">
      <rect width="72" height="72"/>
    </clipPath>
  </defs>
  <g id="SPRK_default_preset_name_custom_1" data-name="SPRK_default_preset_name_custom – 1" clip-path="url(#clip-SPRK_default_preset_name_custom_1)">
    <rect width="72" height="72" fill="#fff"/>
    <g id="德州仪器" transform="translate(-95 -399.823)">
      <path id="路径_1" data-name="路径 1" d="M642.8,463.955v0Zm0-17.556v0Z" transform="translate(-359.087 -26.694)" fill="#475156"/>
      <path id="路径_2" data-name="路径 2" d="M313.111,443.057v18.135a2.239,2.239,0,0,1-1.909,2.523v.648h8.386v-.648a2.217,2.217,0,0,1-1.909-2.523V443.057c0-1.091.341-1.364,1.773-1.364,3.92,0,5.829.068,7.227,2.25l.477-.307-1.6-4.636H305.168l-1.568,4.636.477.307c1.7-2.148,3.034-2.25,7.261-2.25,1.432,0,1.773.239,1.773,1.364" transform="translate(-135.514 -21.817)" fill="#231815"/>
      <path id="路径_3" data-name="路径 3" d="M359.5,457.248c1.227.341,1.875.648,1.875,2.523v13.022c0,1.909-.648,2.216-1.875,2.523v.648h15.783l1.807-4.534-.477-.341a5.981,5.981,0,0,1-5.42,2.557h-4.056c-1.3,0-1.568-.034-1.568-1.3v-5.42h4.943c1.909,0,2.216.443,2.523,1.568h.75v-5.42h-.75c-.307,1.125-.614,1.636-2.523,1.636h-4.943v-4.568c0-.954.307-1.261,1.568-1.261h3.443c2.216,0,3.409.58,5.079,2.386l.477-.341-1.568-4.329H359.5v.648Z" transform="translate(-172.359 -33.417)" fill="#231815"/>
      <path id="路径_4" data-name="路径 4" d="M357.275,458.87l4.841,6.818-4.568,6.477c-1.4,1.943-2.216,2.216-3.511,2.523v.648h7.295v-.648c-1.4-.273-2.011-.784-1.057-2.25l3.2-5.011,3.375,4.841c1.261,1.773-.068,2.25-1.193,2.42v.648h13.226v-.648c-1.329-.239-1.909-.682-1.227-2.488l.852-2.25h7.908l.818,2.25c.511,1.466.341,2.25-1.193,2.488v.648h8.147v-.648a3.6,3.6,0,0,1-2.216-2.182l-6.306-16.533h-4.3l-6.034,15.374a5.712,5.712,0,0,1-1.875,2.8,5.567,5.567,0,0,1-1.568-1.636l-5.318-7.5,4.3-6.068a5,5,0,0,1,3.2-2.284v-.648h-6.886v.648c1.432.1,1.841.92,1.023,2.148l-3,4.431-2.693-4.057c-1.125-1.67-.307-2.352.954-2.523v-.648h-9.17v.648a4.5,4.5,0,0,1,2.966,2.216m25.259.477,3.1,8.454H379.33Zm13.431,15.987c0-.307.307-.954.682-.954a10.15,10.15,0,0,0,5.045,1.3c4.568,0,7.772-2.25,7.772-6.1,0-3.613-2.011-5.079-5.829-5.965l-3.511-.784c-2.011-.443-2.625-1.023-2.625-2.25,0-1.432,1.125-2.386,3.613-2.386a8.526,8.526,0,0,1,6.545,3.136l.477-.341-1.432-4.977h-.92c0,.409-.17.852-.58.852a8.238,8.238,0,0,0-4.3-1.159c-3.92,0-6.988,2.045-6.988,5.727,0,2.829,1.7,4.6,5.386,5.42l3.307.75c2.216.477,3,1.3,3,2.693,0,1.909-1.534,2.932-4.057,2.932-3.545,0-5.8-1.841-7.67-3.988l-.477.341,1.534,5.761h1.023ZM325.3,480.073c1.159.341,2.113.648,2.113,2.523v19.021c0,1.909-.954,2.216-2.113,2.523v.648h8.761v-.648c-1.159-.307-2.113-.614-2.113-2.523V482.6c0-1.875.954-2.182,2.113-2.523v-.648H325.3Zm24.032,6c1.125.341,1.773.648,1.773,2.523V496.5H351l-9.715-11.079h-5.693v.648c1.125.477,1.875.886,1.875,2.523v13.022c0,1.807-.648,2.216-1.875,2.523v.648h6.443v-.648a2.3,2.3,0,0,1-2.011-2.523V490.368h.1l12.851,14.658h.682V488.6a2.3,2.3,0,0,1,1.7-2.523v-.648h-6.034Zm16.84,6.954-3.511-.784c-2.011-.443-2.625-1.023-2.625-2.25,0-1.432,1.125-2.386,3.613-2.386a8.526,8.526,0,0,1,6.545,3.136l.477-.341-1.432-4.977h-.92c0,.409-.2.852-.579.852a8.238,8.238,0,0,0-4.3-1.159c-3.92,0-6.988,2.045-6.988,5.727,0,2.829,1.7,4.6,5.386,5.42l3.307.75c2.216.477,3.034,1.3,3.034,2.693,0,1.909-1.534,2.932-4.057,2.932-3.545,0-5.8-1.841-7.67-3.988l-.477.341,1.534,5.761h.954c0-.307.307-.954.682-.954a10.27,10.27,0,0,0,5.045,1.3c4.568,0,7.772-2.25,7.772-6.1.034-3.613-1.943-5.079-5.795-5.965m6.988-7.6-1.534,4.977.477.341c2.079-2.761,2.659-3,5.386-3,.954,0,1.261.068,1.261,1.261v12.647c0,1.909-.579,2.216-2.113,2.523v.648h8.283v-.648c-1.5-.307-2.113-.614-2.113-2.523V489c0-1.159.307-1.261,1.261-1.261,2.761,0,3.477.273,5.556,3l.477-.341-1.534-4.977Zm33.577,13.6a6.068,6.068,0,0,0-3.784-3.068v-.1c3.307-.545,5.216-2.25,5.216-5.079,0-3.784-3-5.352-7.874-5.352h-9.92v.648c1.261.341,1.875.648,1.875,2.523v13.022c0,1.909-.648,2.216-1.875,2.523v.648h8.113v-.648c-1.159-.307-1.943-.614-1.943-2.523v-4.841h2.011c2.352,0,2.693.954,4.193,4.125,1.227,2.591,2.9,4.227,6.034,4.227a5.237,5.237,0,0,0,2.863-.648v-.545c-2.557-.375-3.409-2.454-4.909-4.909m-6.886-4.5h-3.307v-5.113c0-1.261.307-1.568,1.261-1.568h2.148c2.352,0,3.682.92,3.682,3.17-.034,2.318-1.568,3.511-3.784,3.511m24.032-8.454c.989.239,1.909.648,1.909,2.523v9.545c0,3.17-1.193,4.568-4.772,4.568-3.818,0-5.181-1.4-5.181-4.568V488.6c0-1.875.716-2.284,1.875-2.523v-.648H409.8v.648c1.159.2,1.909.648,1.909,2.523v9.852c0,5.181,4.5,6.681,8.727,6.681,4.7,0,8.079-1.568,8.079-6.988V488.6c0-1.875.58-2.25,1.738-2.523v-.648h-6.375v.648Zm20.078,11.9-5.59-12.544h-6.954v.648c1.261.341,1.875.648,1.875,2.523v13.022a2.223,2.223,0,0,1-1.875,2.523v.648h6.136v-.648c-1.3-.341-1.841-.818-1.841-2.523V489.482l6.988,15.612h.545l6.784-15.612v12.135c0,1.909-.818,2.25-1.773,2.523v.648h7.908v-.648c-1.261-.307-1.875-.614-1.875-2.523V488.6c0-1.875.648-2.182,1.875-2.523v-.648h-6.818l-5.386,12.544Zm25.4,4.5h-4.091c-1.3,0-1.568-.034-1.568-1.3v-5.42h4.943c1.909,0,2.216.443,2.523,1.568h.75V491.9h-.75c-.307,1.125-.614,1.636-2.523,1.636H463.7V488.97c0-.954.307-1.261,1.568-1.261h3.477c2.216,0,3.375.58,5.079,2.386l.477-.341-1.568-4.329H457.665v.648c1.227.341,1.875.648,1.875,2.523v13.022c0,1.909-.648,2.216-1.875,2.523v.648h15.817l1.807-4.534-.477-.341a6.071,6.071,0,0,1-5.454,2.557m20.146-16.4c1.125.341,1.773.648,1.773,2.523V496.5h-.1l-9.715-11.079h-5.693v.648c1.125.477,1.875.886,1.875,2.523v13.022c0,1.807-.648,2.216-1.875,2.523v.648h6.443v-.648a2.3,2.3,0,0,1-2.011-2.523V490.368h.1l12.851,14.658h.682V488.6a2.3,2.3,0,0,1,1.7-2.523v-.648H489.5Zm7.806-.648-1.534,4.977.477.341c2.079-2.761,2.625-3,5.386-3,.954,0,1.261.068,1.261,1.261v12.647c0,1.909-.579,2.216-2.113,2.523v.648h8.283v-.648c-1.5-.307-2.113-.614-2.113-2.523V489c0-1.159.307-1.261,1.261-1.261,2.761,0,3.477.273,5.556,3l.477-.341-1.534-4.977Zm27.612,7.6-3.511-.784c-2.011-.443-2.625-1.023-2.625-2.25,0-1.432,1.125-2.386,3.613-2.386a8.526,8.526,0,0,1,6.545,3.136l.477-.341-1.432-4.977h-.92c0,.409-.2.852-.579.852a8.238,8.238,0,0,0-4.3-1.159c-3.92,0-6.988,2.045-6.988,5.727,0,2.829,1.7,4.6,5.386,5.42l3.307.75c2.216.477,3,1.3,3,2.693,0,1.909-1.534,2.932-4.057,2.932-3.545,0-5.795-1.841-7.636-3.988l-.511.341,1.534,5.761h.954c0-.307.307-.954.682-.954a10.149,10.149,0,0,0,5.045,1.3c4.568,0,7.772-2.25,7.772-6.1.068-3.613-1.943-5.079-5.761-5.965" transform="translate(-149.817 -32.824)" fill="#231815"/>
      <path id="路径_5" data-name="路径 5" d="M155.848,424.58v-7.4h-11.9l-1.5,7.465h4.3l-1.364,6.886h-4.261l-1.466,7.431c-.1.511-.2.886-.239,1.227-.341,2.284.648,2.148,3.852,2.148l-1.466,7.329h-5.59c-5.284,0-9.579-.068-8.454-5.454.17-.852.375-1.67.545-2.454l2.011-10.227h-4.125l1.364-6.886h4.125l1.5-7.465h-3.852V405.9H115.112v22.941H98c.409,5.931,5.693,6.818,7.6,11.045,1.329,2.9,2.488,8.011,6.34,8.079,2.966.034,2.966-3.818,6.749-3.818s5.488,7.227,8.863,13.158c2.523,4.67,6.749,7.806,10.567,8.079a7.605,7.605,0,0,0,4.636-.852A12.329,12.329,0,0,1,141.5,458.6c0-3.818,2.966-7.636,6.34-10.192a32.262,32.262,0,0,1,11.385-5.079v-11.9a7.738,7.738,0,0,1-3.375-6.852m-19.4,17.794,5.011-25.191H135.7l-4.977,25.191h5.727ZM143,409.207h-5.761l-1.091,5.556h5.761Z" transform="translate(0)" fill="#e50012"/>
    </g>
  </g>
</svg>
